<?xml version="1.0" standalone="no"?>
<!DOCTYPE svg PUBLIC "-//W3C//DTD SVG 20010904//EN"
 "http://www.w3.org/TR/2001/REC-SVG-20010904/DTD/svg10.dtd">
<svg version="1.0" xmlns="http://www.w3.org/2000/svg"
 width="1024.000000pt" height="1024.000000pt" viewBox="0 0 1024.000000 1024.000000"
 preserveAspectRatio="xMidYMid meet">

<g transform="translate(0.000000,1024.000000) scale(0.100000,-0.100000)"
fill="#ffffff" stroke="none">
<path d="M5720 7697 c-41 -13 -100 -36 -130 -52 -65 -35 -182 -149 -230 -222
l-33 -53 -24 67 c-30 87 -66 138 -120 170 -118 69 -247 24 -314 -110 -17 -33
-105 -232 -194 -441 -90 -210 -196 -455 -235 -546 -39 -91 -74 -171 -77 -177
-3 -7 -15 -13 -28 -13 -51 0 -236 -44 -369 -87 -532 -175 -951 -552 -1114
-1003 -64 -176 -76 -246 -76 -460 -1 -172 2 -206 23 -290 64 -258 162 -455
352 -711 44 -58 79 -110 79 -114 0 -10 -89 -223 -135 -321 -22 -48 -45 -80
-71 -100 -37 -29 -39 -29 -208 -35 -103 -3 -180 -10 -193 -17 -63 -35 -83
-124 -43 -190 37 -61 46 -62 503 -62 l413 0 52 26 c28 14 65 42 81 63 26 32
77 136 110 223 l10 27 83 -45 c174 -95 426 -187 635 -234 234 -51 257 -53 840
-57 533 -4 553 -4 597 15 73 33 103 106 69 171 -38 73 -49 76 -293 79 l-219 3
22 37 c72 117 97 269 62 388 -53 186 -199 331 -381 379 -70 19 -203 20 -271 4
-119 -30 -246 -116 -304 -207 -58 -91 -27 -192 59 -192 28 0 42 8 74 43 22 23
55 58 74 78 58 62 114 83 219 83 110 0 162 -20 234 -92 64 -64 92 -121 99
-198 7 -90 -18 -155 -83 -221 -76 -76 -124 -87 -325 -80 -183 7 -375 43 -570
107 -127 42 -357 147 -441 201 l-47 30 35 87 c19 48 50 125 68 172 19 47 57
139 85 205 28 66 63 149 76 185 34 88 115 272 127 288 7 9 170 12 776 10 l766
-3 162 -395 c344 -836 428 -1035 456 -1077 16 -24 50 -56 76 -71 l46 -27 475
-3 c438 -2 478 -1 509 15 71 37 94 110 57 182 -31 60 -74 71 -284 71 -198 0
-214 3 -263 57 -38 40 -44 53 -284 633 -440 1059 -447 1079 -440 1130 22 144
90 279 194 385 80 81 160 134 332 220 178 89 281 157 367 244 113 112 212 272
243 392 17 65 0 119 -72 227 -150 227 -408 437 -678 553 -137 58 -127 59 -134
-8 -4 -32 -13 -83 -21 -113 -8 -30 -14 -55 -13 -56 1 0 58 -28 127 -62 196
-95 363 -223 472 -361 32 -40 68 -91 79 -113 l21 -41 -38 -76 c-28 -58 -57
-96 -123 -161 -104 -104 -146 -132 -366 -245 -93 -48 -195 -105 -225 -126 -80
-56 -185 -150 -204 -182 -10 -15 -22 -24 -28 -21 -7 4 -8 2 -4 -4 4 -7 2 -12
-4 -12 -6 0 -8 -5 -5 -10 3 -6 0 -13 -8 -16 -8 -3 -23 -23 -33 -44 -18 -38
-34 -52 -34 -30 0 5 -13 38 -29 72 -34 76 -149 343 -261 608 -45 107 -102 239
-126 293 -33 76 -39 97 -26 92 9 -4 44 -9 77 -12 56 -5 62 -3 92 24 76 72 45
165 -65 192 -230 58 -380 274 -345 500 14 92 49 164 111 232 89 97 220 148
342 134 129 -15 254 -108 313 -232 28 -60 32 -80 35 -173 3 -90 1 -114 -18
-165 -43 -116 -36 -170 27 -200 90 -43 171 47 209 236 67 330 -135 661 -452
744 -88 23 -242 19 -334 -8z m-557 -1612 c58 -137 152 -365 210 -505 58 -140
123 -298 145 -350 22 -52 38 -98 35 -102 -6 -12 -1023 -10 -1023 1 0 5 9 31
21 58 12 26 40 95 64 153 23 58 77 188 120 290 103 248 170 408 209 505 62
151 96 219 105 209 5 -5 56 -121 114 -259z m-952 -93 c-11 -26 -46 -110 -79
-187 -147 -346 -323 -765 -472 -1125 -126 -305 -188 -450 -242 -570 l-35 -75
-17 38 c-15 30 -21 35 -32 26 -11 -9 -14 -8 -14 5 0 10 -4 14 -10 11 -5 -3
-10 1 -10 10 0 9 -4 14 -9 11 -8 -5 -14 3 -21 29 -2 6 -11 16 -21 23 -21 15
-26 37 -6 27 6 -4 2 2 -10 12 -38 32 -118 224 -149 358 -15 61 -19 116 -18
235 1 134 5 169 28 255 95 361 392 683 795 864 94 42 320 113 333 105 4 -3 -1
-26 -11 -52z m-857 -1942 c-5 -5 -10 3 -11 18 -1 22 0 24 9 8 6 -10 6 -22 2
-26z"/>
<path d="M6375 7628 c-16 -6 -32 -12 -34 -14 -2 -2 28 -37 67 -79 45 -48 83
-100 102 -142 32 -67 70 -197 70 -238 0 -18 14 -27 80 -53 45 -18 116 -52 158
-77 l77 -44 13 37 c40 111 32 251 -22 365 -55 119 -146 202 -260 240 -56 19
-203 22 -251 5z"/>
<path d="M6610 6503 c-17 -14 -36 -38 -41 -52 -15 -38 -1 -97 31 -131 23 -25
36 -30 74 -30 75 0 126 49 126 120 0 102 -114 158 -190 93z"/>
</g>
</svg>
